<?xml version="1.0" standalone="no"?>
<!DOCTYPE svg PUBLIC "-//W3C//DTD SVG 20010904//EN"
 "http://www.w3.org/TR/2001/REC-SVG-20010904/DTD/svg10.dtd">
<svg version="1.0" xmlns="http://www.w3.org/2000/svg"
 width="643.000000pt" height="592.000000pt" viewBox="0 0 643.000000 592.000000"
 preserveAspectRatio="xMidYMid meet">

<g transform="translate(0.000000,592.000000) scale(0.100000,-0.100000)"
fill="#000000" stroke="none">
<path d="M3275 5135 c-368 -124 -677 -228 -685 -233 -27 -16 -24 -49 7 -69 15
-9 251 -163 523 -341 l495 -324 495 163 c272 89 596 195 720 235 133 43 229
79 237 90 16 21 1 51 -31 64 -20 7 -994 594 -1041 626 -10 8 -26 14 -35 13 -8
0 -316 -101 -685 -224z"/>
<path d="M2910 4511 c-6 -12 -10 -113 -10 -260 l0 -239 -35 -22 c-54 -33 -181
-185 -243 -290 -30 -52 -79 -156 -108 -230 -53 -138 -140 -446 -169 -600 -8
-47 -22 -120 -31 -163 -32 -162 -53 -533 -54 -946 l0 -283 -72 8 c-183 22
-366 -4 -626 -86 -225 -72 -293 -84 -482 -85 -153 0 -185 3 -255 23 -87 25
-224 93 -287 144 -59 46 -141 150 -177 222 -39 80 -71 213 -71 297 0 142 58
326 147 463 108 167 332 333 548 407 63 22 87 24 230 23 148 0 167 -2 245 -28
129 -43 228 -95 293 -155 155 -143 241 -340 240 -547 -1 -230 -139 -432 -383
-558 -119 -62 -182 -76 -337 -76 -154 0 -245 20 -373 81 -106 51 -211 153
-262 256 -31 63 -33 74 -32 163 1 165 53 269 214 431 67 68 102 94 165 125
l80 39 135 -1 c112 0 145 -4 194 -22 77 -28 196 -103 236 -149 40 -45 86 -140
101 -210 15 -66 -5 -180 -47 -269 -33 -70 -111 -151 -174 -182 -51 -24 -148
-42 -231 -42 -61 0 -189 29 -241 56 -47 23 -116 92 -140 138 -61 119 51 341
209 413 139 64 266 29 345 -96 23 -38 28 -55 28 -110 -1 -110 -37 -165 -146
-219 l-40 -21 -73 26 c-61 22 -77 33 -102 69 -34 49 -36 83 -9 141 31 70 125
112 175 79 26 -17 41 -70 30 -106 -9 -28 -51 -48 -67 -32 -8 8 -5 14 15 21 16
6 27 18 27 28 0 33 -16 45 -56 41 -34 -3 -41 -8 -57 -40 -48 -97 61 -178 154
-115 68 45 87 128 47 207 -33 64 -67 85 -136 84 -120 -2 -210 -85 -227 -210
-7 -57 7 -104 51 -161 29 -38 70 -61 167 -93 l68 -23 74 38 c41 21 90 53 109
71 76 74 101 240 51 341 -31 62 -109 137 -173 166 -66 30 -186 30 -262 -1
-207 -84 -354 -352 -282 -515 81 -183 316 -284 577 -247 235 33 390 207 420
471 14 116 -51 277 -150 374 -120 119 -294 185 -485 185 -164 0 -290 -61 -433
-209 -144 -149 -199 -252 -219 -407 -21 -167 23 -284 162 -424 95 -96 153
-131 301 -181 86 -30 107 -33 249 -37 182 -5 247 7 377 68 213 100 365 264
428 463 46 143 29 357 -39 511 -70 157 -198 299 -333 368 -177 91 -319 123
-510 116 -99 -4 -133 -10 -213 -37 -159 -54 -271 -121 -421 -253 -99 -86 -160
-169 -220 -293 -70 -146 -93 -243 -93 -390 -1 -214 64 -374 214 -525 180 -181
395 -258 695 -247 148 5 274 31 485 98 227 73 400 98 535 80 43 -6 80 -13 82
-14 2 -2 -20 -82 -47 -177 -40 -136 -48 -175 -38 -182 7 -5 36 -20 63 -35 28
-14 138 -74 245 -133 108 -59 229 -123 270 -142 41 -19 153 -76 247 -126 95
-50 199 -98 232 -107 67 -17 123 -19 137 -5 22 22 584 150 784 179 101 15 355
29 407 24 l41 -5 106 324 c57 177 164 508 237 733 127 395 134 412 175 456 23
25 58 81 78 123 46 101 99 172 145 195 103 53 395 136 440 126 51 -11 138 70
160 150 32 115 2 234 -79 315 -53 53 -70 59 -204 68 -95 7 -120 13 -158 35
-90 52 -182 170 -303 387 -32 58 -70 120 -84 139 -22 30 -22 34 -5 27 72 -28
172 -48 212 -42 133 18 188 126 128 251 -33 68 -123 170 -192 216 -67 46 -127
52 -173 19 -34 -24 -74 -111 -96 -208 l-17 -72 -44 36 -44 36 0 233 c0 199 -2
236 -16 249 -21 21 -18 21 -136 -20 -57 -20 -322 -110 -591 -199 l-487 -164
-83 46 c-45 25 -118 70 -162 101 -44 31 -123 85 -175 120 -52 36 -127 87 -166
114 -77 52 -107 59 -124 29z m2277 -390 c46 -31 130 -127 157 -178 41 -81 9
-138 -78 -138 -65 0 -187 38 -223 69 l-28 24 17 82 c9 44 26 101 38 126 27 54
54 58 117 15z m-344 -215 c45 -33 186 -228 262 -361 37 -66 85 -145 106 -176
117 -174 245 -269 361 -269 l39 0 -16 -30 c-19 -37 -45 -145 -45 -190 0 -52
18 -106 46 -140 19 -21 22 -31 12 -34 -112 -31 -317 -104 -350 -125 -24 -16
-59 -47 -77 -70 -29 -36 -100 -162 -112 -198 -9 -27 -61 5 -149 91 l-91 89
-77 -13 c-108 -17 -378 -82 -497 -120 -134 -43 -328 -122 -446 -181 l-97 -48
-98 61 c-55 33 -173 109 -264 168 -91 59 -225 142 -297 185 l-133 77 -132 -15
c-88 -9 -139 -11 -151 -5 -25 13 -64 2 -71 -20 -3 -9 -53 -186 -111 -392 -59
-206 -109 -377 -112 -380 -9 -7 5 475 18 620 18 220 60 446 131 709 86 324
183 531 322 692 88 101 126 120 179 89 47 -28 263 -97 377 -120 219 -46 721
-51 940 -10 129 24 366 99 425 135 43 25 50 24 108 -19z m926 -848 c56 -55 74
-101 69 -184 -6 -116 -53 -161 -131 -122 -58 29 -79 70 -74 143 5 67 31 151
55 178 22 25 44 21 81 -15z m-2724 -601 c153 -91 304 -187 294 -187 -4 0 -53
22 -110 49 -57 27 -183 84 -279 127 l-175 79 50 6 c28 3 57 7 65 7 8 1 78 -35
155 -81z m-10 -137 c55 -23 130 -58 167 -76 37 -18 125 -56 197 -84 72 -28
131 -57 131 -63 0 -7 -104 -337 -231 -734 l-232 -721 -281 143 c-155 79 -344
178 -421 221 l-140 79 36 130 c95 337 360 1271 364 1282 3 8 57 -13 157 -61
84 -41 198 -93 253 -116z m1818 38 l60 -52 -199 -22 c-368 -41 -573 -74 -703
-115 -167 -51 7 25 221 97 149 50 280 85 443 119 61 13 112 24 114 24 2 1 30
-22 64 -51z m127 -135 c0 -9 -461 -1437 -466 -1442 -1 -2 -74 -7 -161 -12 -87
-5 -190 -13 -230 -19 -123 -17 -381 -70 -567 -116 -98 -25 -181 -43 -183 -40
-5 5 432 1386 449 1418 9 18 199 83 329 112 84 19 395 63 609 86 193 21 220
22 220 13z m-1292 -196 c23 -7 42 -16 42 -22 0 -17 -452 -1429 -460 -1439 -9
-9 -116 19 -125 34 -3 5 95 323 219 707 123 384 227 709 231 721 5 19 11 22
28 17 12 -4 41 -12 65 -18z"/>
<path d="M3395 3516 c-44 -19 -103 -89 -111 -131 -22 -122 23 -275 104 -346
65 -57 109 -68 180 -43 76 25 128 74 169 159 18 38 33 74 33 80 0 6 10 15 23
20 55 24 17 82 -117 175 -131 92 -211 117 -281 86z m138 -92 c29 -15 80 -46
114 -70 l61 -44 -10 -37 c-17 -61 -65 -149 -94 -172 -15 -12 -44 -26 -65 -33
-35 -10 -42 -9 -79 16 -62 41 -100 127 -100 225 0 70 1 74 34 107 41 41 69 43
139 8z"/>
<path d="M4795 3433 c-17 -19 -25 -39 -25 -64 0 -45 25 -69 78 -76 34 -5 42
-2 60 22 31 39 29 90 -4 120 -36 33 -76 32 -109 -2z"/>
<path d="M3865 1605 c-50 -26 -75 -64 -75 -116 0 -48 12 -65 72 -102 36 -22
45 -53 22 -78 -23 -25 -74 -25 -108 2 -30 23 -54 22 -70 -3 -15 -24 0 -47 50
-76 56 -33 133 -27 174 13 67 64 59 148 -19 202 -45 31 -50 51 -21 78 17 16
26 17 56 7 41 -12 61 -7 69 18 9 29 -5 49 -43 60 -50 14 -72 13 -107 -5z"/>
<path d="M4218 1600 c-9 -6 -33 -40 -54 -78 -20 -37 -59 -101 -86 -143 -50
-79 -58 -108 -33 -129 21 -18 48 -4 70 36 14 27 24 34 39 30 10 -3 27 -1 37 4
19 10 29 -11 29 -62 0 -15 7 -31 16 -36 20 -11 51 -5 57 11 2 7 1 88 -3 181
-6 149 -9 170 -25 182 -22 16 -25 17 -47 4z m-16 -192 c-7 -7 -12 -8 -12 -2 0
14 12 26 19 19 2 -3 -1 -11 -7 -17z"/>
<path d="M4406 1585 c-24 -36 -39 -128 -34 -212 4 -91 29 -123 93 -123 34 0
47 6 77 38 45 46 60 77 87 173 26 94 27 125 2 139 -27 14 -50 3 -57 -29 -29
-128 -48 -183 -79 -218 -29 -33 -34 -36 -41 -20 -10 26 2 176 17 214 10 25 10
34 0 47 -20 23 -46 19 -65 -9z"/>
</g>
</svg>
