<svg width="140" height="36" viewBox="0 0 140 36" fill="none" xmlns="http://www.w3.org/2000/svg">
    <path d="M23.3711 11.0351H27.8033V13.7916H27.8753C28.837 11.7965 30.7919 10.5987 33.1142 10.5987C33.6695 10.5987 34.1845 10.7066 34.7019 10.8541V15.0577C33.9648 14.8767 33.2656 14.7328 32.5602 14.7328C28.3916 14.7328 27.8033 18.1775 27.8033 19.1199V28.4362H23.3711V11.0351Z" fill="#231F20"/>
    <path d="M57.7627 11.0351H62.5952L67.324 23.2157H67.3911L72.1553 11.0351H76.6901L69.7147 28.4362H64.992L57.7627 11.0351Z" fill="#231F20"/>
    <path d="M89.309 28.4358H93.291V18.4278C93.291 15.9662 93.291 10.5983 85.7298 10.5983C82.9255 10.5983 80.159 11.4352 78.204 13.3896L80.5263 15.6737C81.7112 14.5862 83.4075 13.8632 85.2502 13.8632C87.614 13.8632 89.309 14.983 89.309 17.1257V17.5957H88.2034C83.776 17.5957 77.0605 17.9937 77.0605 23.6506C77.0605 27.0929 80.2334 28.8674 83.5173 28.8674C85.8823 28.8674 87.9423 27.9982 89.198 26.0426H89.309V28.4358ZM89.0516 21.6195C89.0516 24.0487 87.614 25.605 84.5876 25.605C83.1439 25.605 81.4867 24.9203 81.4867 23.3233C81.4867 20.821 85.6969 20.6423 88.1302 20.6423H89.0516V21.6195Z" fill="#231F20"/>
    <path d="M110.674 28.4358H114.883V1.0279H110.452V13.2469H110.344C109.417 12.1186 107.649 10.5983 104.327 10.5983C99.2712 10.5983 95.7725 14.5862 95.7725 19.7347C95.7725 24.8844 99.0491 28.8674 104.514 28.8674C106.984 28.8674 109.31 27.9262 110.601 25.8244H110.674V28.4358ZM100.195 19.7347C100.195 17.0141 102.152 14.513 105.398 14.513C108.642 14.513 110.601 17.0141 110.601 19.7347C110.601 22.4552 108.642 24.9575 105.398 24.9575C102.152 24.9575 100.195 22.4552 100.195 19.7347Z" fill="#231F20"/>
    <path d="M120.558 2.5124C122.186 2.5124 123.44 3.63586 123.44 5.12621C123.44 6.61177 122.186 7.73403 120.558 7.73403C118.937 7.73403 117.758 6.50026 117.758 5.12621C117.758 3.74856 118.937 2.5124 120.558 2.5124ZM118.384 11.0349H122.816V28.4359H118.384V11.0349Z" fill="#231F20"/>
    <path d="M135.803 15.8558C134.952 14.6976 133.843 14.0789 132.335 14.0789C131.15 14.0789 129.755 14.6208 129.755 15.9289C129.755 19.0463 139.308 16.5093 139.308 23.2848C139.308 27.4213 135.283 28.8673 131.665 28.8673C128.934 28.8673 126.577 28.1827 124.765 26.1864L127.724 23.4694C128.865 24.702 130.049 25.6049 131.928 25.6049C133.222 25.6049 134.882 24.991 134.882 23.6133C134.882 20.0259 125.326 22.8532 125.326 16.2179C125.326 12.3379 128.865 10.5982 132.442 10.5982C134.801 10.5982 137.314 11.326 138.753 13.2468L135.803 15.8558Z" fill="#231F20"/>
    <path d="M55.8798 9.43636C56.1031 10.1366 55.3794 10.6282 54.8852 10.8979C52.735 9.92196 50.5323 9.16419 47.9403 9.21694C43.8668 9.2697 39.786 12.0322 38.4083 15.875C37.4125 18.6411 37.5833 22.3807 39.4004 24.7644C41.7129 27.8446 45.6265 29.3673 49.5402 28.3374C52.735 27.4669 55.0548 24.274 55.2745 21.1338C55.6028 18.2622 54.2799 15.7179 51.7978 14.3079C50.0881 13.4422 47.6669 12.9518 45.7364 13.7132C43.5361 14.7419 41.9863 17.1783 41.9863 19.6686C42.1596 21.1877 42.5928 22.7548 44.0828 23.5725C45.4044 24.5977 47.169 24.7644 48.825 24.274C50.5323 23.3519 51.3597 21.5115 51.1363 19.6686C50.9765 18.6998 49.9258 17.9924 49.0947 17.6123C48.3808 17.5032 47.7243 17.3953 47.0555 17.7202C46.5076 18.3173 45.9023 18.912 46.1244 19.8844C47.2301 21.5666 48.3259 17.9385 49.5402 20.1602C49.6475 21.0822 49.0947 22.1601 48.1087 22.5942C47.1105 22.9731 46.1244 22.8148 45.2434 22.3244C44.25 21.6757 43.6972 20.7009 43.6496 19.5583C43.6496 17.7202 45.02 15.9337 46.6199 15.2815C48.1087 14.8498 49.7635 15.1772 51.0302 15.875C52.3542 16.6963 53.2841 18.0452 53.6209 19.4516C53.8382 22.1086 52.735 24.3843 50.6934 25.895C49.2619 26.8722 47.335 27.2499 45.5716 26.7655C43.0358 26.329 40.5011 24.1649 39.786 21.7261C39.1771 19.0236 39.8934 16.1496 41.4933 13.9842C43.4251 11.7109 46.3453 10.5167 49.5402 11.0622C52.4604 11.5454 55.3294 13.2792 56.756 16.0416C58.5779 19.5583 57.8091 24.0581 55.4929 27.0868C53.178 29.9057 50.1454 31.0999 46.5662 31.0999C42.8137 30.6071 39.1771 29.04 37.0293 25.6288C34.7106 22.5942 34.9889 17.7202 36.4179 14.417C38.2399 10.1929 42.7075 7.26737 47.2301 6.89209C50.5323 6.78058 53.7845 7.10791 55.8798 9.43636Z" fill="#155196"/>
    <path d="M10.4241 24.9576C7.17561 24.9576 5.21697 22.4553 5.21697 19.7348C5.21697 17.0143 7.17561 14.5132 10.4241 14.5132C13.6678 14.5132 15.6289 17.0143 15.6289 19.7348C15.6289 22.4553 13.6678 24.9576 10.4241 24.9576ZM11.3101 10.5984C8.83648 10.5984 6.5093 11.5421 5.21697 13.6451H5.14375V11.0349H0.938477V35.2379H5.36707V26.2214H5.47812C6.40191 27.3496 8.17628 28.8676 11.4919 28.8676C16.5514 28.8676 20.0526 24.8845 20.0526 19.7348C20.0526 14.5863 16.7662 10.5984 11.3101 10.5984Z" fill="#231F20"/>
</svg>
